<svg xmlns="http://www.w3.org/2000/svg" viewBox="0 0 32 32" fill="none">
  <rect width="32" height="32" rx="6" fill="#1e40af"/>
  <!-- Brain icon -->
  <g transform="translate(4,4)" stroke="#60a5fa" stroke-width="1.5" stroke-linecap="round" stroke-linejoin="round" fill="none">
    <path d="M12 3a5 5 0 0 0-4.77 3.47A4 4 0 0 0 4 10.5a4 4 0 0 0 1.83 3.36A3.5 3.5 0 0 0 8 20h4"/>
    <path d="M12 3a5 5 0 0 1 4.77 3.47A4 4 0 0 1 20 10.5a4 4 0 0 1-1.83 3.36A3.5 3.5 0 0 1 16 20h-4"/>
    <path d="M12 3v18"/>
    <path d="M8 10h8" opacity="0.5"/>
    <path d="M7 14h10" opacity="0.5"/>
  </g>
</svg>
